<svg xmlns="http://www.w3.org/2000/svg" viewBox="0 0 1600 1100" fill="none">
  <rect width="1600" height="1100" rx="56" fill="#F3E8D9"/>
  <rect x="72" y="72" width="1456" height="956" rx="38" fill="#FFFDF8" stroke="#E5D8C6"/>
  <rect x="120" y="118" width="1360" height="52" rx="26" fill="#F6EFE4"/>
  <circle cx="160" cy="144" r="8" fill="#D2BFAB"/>
  <circle cx="188" cy="144" r="8" fill="#D2BFAB"/>
  <circle cx="216" cy="144" r="8" fill="#D2BFAB"/>
  <rect x="150" y="240" width="390" height="28" rx="14" fill="#D1B48E"/>
  <rect x="150" y="292" width="470" height="140" rx="20" fill="#1F1813"/>
  <rect x="150" y="460" width="350" height="18" rx="9" fill="#C1B09B"/>
  <rect x="150" y="496" width="320" height="18" rx="9" fill="#C1B09B" opacity=".72"/>
  <rect x="150" y="566" width="172" height="52" rx="26" fill="#B87440"/>
  <rect x="352" y="566" width="172" height="52" rx="26" fill="#EFE4D6"/>
  <rect x="722" y="222" width="660" height="540" rx="34" fill="url(#paint0_linear)"/>
  <circle cx="1158" cy="408" r="170" fill="#F8EEE0" opacity=".46"/>
  <path d="M882 696c82-128 168-196 256-204 69-7 142 27 218 102v168H776c6-26 41-48 106-66Z" fill="#FFF6EA" opacity=".84"/>
  <rect x="722" y="802" width="308" height="152" rx="28" fill="#FFF9F1" stroke="#E9DCCB"/>
  <rect x="752" y="838" width="160" height="20" rx="10" fill="#D0B793"/>
  <rect x="752" y="876" width="224" height="14" rx="7" fill="#CEC0AF"/>
  <rect x="752" y="906" width="190" height="14" rx="7" fill="#CEC0AF" opacity=".78"/>
  <rect x="1060" y="802" width="322" height="152" rx="28" fill="#1F1813"/>
  <rect x="1092" y="838" width="108" height="16" rx="8" fill="#E4C49F"/>
  <rect x="1092" y="876" width="246" height="14" rx="7" fill="#9C8F82"/>
  <rect x="1092" y="906" width="204" height="14" rx="7" fill="#9C8F82" opacity=".72"/>
  <defs>
    <linearGradient id="paint0_linear" x1="750" y1="234" x2="1318" y2="754" gradientUnits="userSpaceOnUse">
      <stop stop-color="#D2A675"/>
      <stop offset=".42" stop-color="#CF8359"/>
      <stop offset="1" stop-color="#EBD7C1"/>
    </linearGradient>
  </defs>
</svg>

